<svg width="125px" height="16px" viewBox="0 0 125 16" version="1.1" xmlns="http://www.w3.org/2000/svg" xmlns:xlink="http://www.w3.org/1999/xlink">
    <defs></defs>
    <g id="Page-1" stroke="none" stroke-width="1" fill="none" fill-rule="evenodd">
        <path d="M94.2558922,0.339970581 L123.584549,0.339970581 C124.140474,2.14555244 124.418437,3.4996362 124.418437,4.40222186 C124.418437,5.10031624 124.750996,7.74073106 124.418437,11.840433 C124.196732,14.5735677 123.918769,15.8399194 123.584549,15.6394882 L94.2558922,15.6394882 C87.9639857,13.0332463 84.1200242,11.2431093 82.7240076,10.2690771 C81.6940682,9.55046531 22.8666601,11.2320739 3.33584555,10.672684 C-0.891897076,10.5515955 0.10154469,8.81991994 0.10154469,8.70629215 C0.10154469,8.59084457 -0.807924376,6.79024327 3.33584555,6.66703139 C22.7485815,6.0898083 81.7392336,6.40236167 82.8299081,5.65473269 C84.2408626,4.68756007 88.049524,2.9159727 94.2558922,0.339970581 Z" id="Rectangle-4" fill="#8B572A"></path>
    </g>
</svg>
